<svg xmlns="http://www.w3.org/2000/svg" viewBox="0 0 512 512" width="512" height="512" role="img" aria-label="WIZAG">
  <title>WIZAG</title>
  <rect width="512" height="512" rx="96" fill="#1b306c"/>
  <g transform="translate(256 256) scale(0.72) translate(-1214 -481.5)">
    <path fill="#ffffff" d="M1026.15 698.70 l0.15 -15.30 12.30 -17.40 c6.90 -9.45 33.90 -48 60.15 -85.50 26.25 -37.50 62.10 -88.50 79.50 -113.25 17.40 -24.75 45.30 -64.35 61.95 -88.05 16.65 -23.70 30.30 -43.50 30.30 -43.95 0 -0.45 -54.90 -0.75 -122.10 -0.75 l-122.25 0 -0.15 -37.50 -0.15 -37.50 3.90 -1.50 c2.55 -0.90 71.40 -1.50 189.90 -1.50 l185.85 0 0 10.50 c0 7.20 -0.75 11.85 -2.40 14.25 -2.25 3.45 -2.25 3.75 0.15 3.75 1.80 0 2.40 0.90 1.95 2.70 -0.45 1.35 -11.25 17.40 -24 35.55 -19.05 27.15 -71.55 102.75 -177 254.70 -7.20 10.50 -19.20 27.75 -26.70 38.40 -7.35 10.50 -13.50 19.65 -13.50 20.25 0 0.45 54.30 0.90 120.75 0.90 l120.75 0 0 38.25 0 38.25 -189.75 0 -189.75 0 0.15 -15.30z"/>
    <path fill="#f79d07" d="M1026 511.50 l0 -181.50 128.40 0 128.40 0 -3.60 4.95 c-2.10 2.55 -17.40 24.45 -34.20 48.30 -16.80 24 -44.85 63.75 -62.25 88.50 -17.40 24.75 -50.85 72.30 -74.25 105.75 -56.40 80.70 -81.15 115.50 -81.90 115.50 -0.30 0 -0.60 -81.60 -0.60 -181.50z"/>
    <path fill="#f79d07" d="M1153.95 639.90 c0.45 -1.05 7.20 -11.10 14.85 -22.05 7.80 -11.10 20.85 -29.85 29.10 -41.85 38.85 -55.95 167.10 -240.60 183.75 -264.30 12 -17.25 19.50 -26.70 21.30 -26.70 2.40 0 2.55 9.45 2.55 178.50 l0 178.50 -126.15 0 c-106.95 0 -126 -0.30 -125.40 -2.10z"/>
  </g>
</svg>
